<?xml version="1.0" encoding="UTF-8"?>
<svg version="1.1" xmlns="http://www.w3.org/2000/svg" width="180" height="180">
<path d="M0 0 C1.53854296 1.46073736 3.06100324 2.93870864 4.5625 4.4375 C5.49642578 5.35402344 5.49642578 5.35402344 6.44921875 6.2890625 C20.80094564 21.44706618 28.13517472 43.90324838 27.91601562 64.4519043 C27.083959 88.90545412 16.57419944 108.42580056 -0.32421875 125.32421875 C-16.71284389 140.61339734 -38.3782461 147.23617751 -60.43359375 146.71875 C-82.8404367 145.40552844 -101.43848887 136.15729628 -117.4375 120.4375 C-118.06269531 119.82519531 -118.68789062 119.21289062 -119.33203125 118.58203125 C-134.02367404 103.028125 -141.2752726 80.12346135 -140.72265625 59.00390625 C-139.11129564 38.85086188 -131.81536532 20.70460584 -118.4375 5.4375 C-117.84453125 4.74914062 -117.2515625 4.06078125 -116.640625 3.3515625 C-85.94593678 -29.83542947 -32.75459956 -28.6912453 0 0 Z " fill="#FEFEFE" transform="translate(146.4375,27.5625)"/>
<path d="M0 0 C1.88428711 0.32000977 1.88428711 0.32000977 3.80664062 0.64648438 C5.00611328 0.86240234 6.20558594 1.07832031 7.44140625 1.30078125 C8.52236572 1.49454346 9.6033252 1.68830566 10.71704102 1.88793945 C13.66715073 2.75499584 14.54943891 3.33377464 16.4375 5.6875 C17.10197449 7.83688354 17.10197449 7.83688354 17.51245117 10.35498047 C17.67239059 11.29961151 17.83233002 12.24424255 17.99711609 13.21749878 C18.15662247 14.23627106 18.31612885 15.25504333 18.48046875 16.3046875 C18.65379227 17.35399445 18.82711578 18.40330139 19.00569153 19.48440552 C19.37007741 21.70433517 19.72862726 23.92522945 20.08178711 26.14697266 C20.62208235 29.54415487 21.17951531 32.93816644 21.74023438 36.33203125 C22.09215459 38.48941902 22.44309847 40.64696633 22.79296875 42.8046875 C22.95854782 43.81941132 23.12412689 44.83413513 23.29472351 45.87960815 C23.52044792 47.3060112 23.52044792 47.3060112 23.75073242 48.76123047 C23.88380295 49.59379364 24.01687347 50.42635681 24.15397644 51.28414917 C24.4375 53.6875 24.4375 53.6875 24.4375 58.6875 C29.0575 58.6875 33.6775 58.6875 38.4375 58.6875 C38.4375 60.9975 38.4375 63.3075 38.4375 65.6875 C42.0675 65.6875 45.6975 65.6875 49.4375 65.6875 C48.4475 67.0075 47.4575 68.3275 46.4375 69.6875 C45.7775 69.6875 45.1175 69.6875 44.4375 69.6875 C45.6440625 70.863125 45.6440625 70.863125 46.875 72.0625 C49.4375 74.6875 49.4375 74.6875 50.4375 76.6875 C40.5375 76.6875 30.6375 76.6875 20.4375 76.6875 C20.1075 75.6975 19.7775 74.7075 19.4375 73.6875 C18.468125 74.5125 17.49875 75.3375 16.5 76.1875 C5.83685997 84.18012006 -11.12111958 92.71388156 -24.5625 91.6875 C-27.69110926 90.88004751 -30.6739349 89.78474378 -33.6875 88.625 C-34.51846191 88.31280518 -35.34942383 88.00061035 -36.20556641 87.67895508 C-42.39527136 85.29043889 -48.14683666 82.48386528 -53.8984375 79.16796875 C-57.6119383 77.10430775 -60.40204111 75.66429082 -64.6875 75.75 C-69.9333564 75.66538941 -74.56846723 74.20467451 -79.5625 72.6875 C-79.5625 70.7075 -79.5625 68.7275 -79.5625 66.6875 C-82.5325 67.1825 -82.5325 67.1825 -85.5625 67.6875 C-84.5725 68.3475 -83.5825 69.0075 -82.5625 69.6875 C-83.6600223 72.68074263 -84.23932892 73.53360901 -87.1875 74.9375 C-87.97125 75.185 -88.755 75.4325 -89.5625 75.6875 C-89.0675 75.06875 -88.5725 74.45 -88.0625 73.8125 C-86.37027227 71.84869096 -86.37027227 71.84869096 -86.5625 69.6875 C-87.85483607 68.31439293 -89.18687146 66.97715176 -90.5625 65.6875 C-86.9325 65.6875 -83.3025 65.6875 -79.5625 65.6875 C-79.5625 63.3775 -79.5625 61.0675 -79.5625 58.6875 C-75.2725 58.6875 -70.9825 58.6875 -66.5625 58.6875 C-66.46710938 57.30433594 -66.37171875 55.92117187 -66.2734375 54.49609375 C-65.50844181 46.12006197 -64.06654285 37.84800284 -62.66113281 29.56030273 C-62.18480196 26.73399116 -61.72512309 23.90526253 -61.265625 21.07617188 C-60.96195456 19.27066198 -60.65730231 17.46531688 -60.3515625 15.66015625 C-60.14981918 14.39764793 -60.14981918 14.39764793 -59.94400024 13.1096344 C-58.5827873 5.29191154 -58.5827873 5.29191154 -55.5625 2.6875 C-52.75024414 1.77441406 -52.75024414 1.77441406 -49.34765625 1.203125 C-48.10306641 0.99042969 -46.85847656 0.77773438 -45.57617188 0.55859375 C-44.27228516 0.35363281 -42.96839844 0.14867187 -41.625 -0.0625 C-39.72137695 -0.39314453 -39.72137695 -0.39314453 -37.77929688 -0.73046875 C-24.58627306 -2.91012687 -13.12438838 -2.41710372 0 0 Z " fill="#7B7DA1" transform="translate(110.5625,46.3125)"/>
<path d="M0 0 C1.70736328 0.35771484 1.70736328 0.35771484 3.44921875 0.72265625 C6.21859529 1.30445804 8.98517664 1.89699908 11.75 2.5 C12.75008647 8.28355476 13.74691816 14.0676574 14.74072266 19.85229492 C15.07934343 21.82054849 15.41885697 23.78864868 15.75927734 25.7565918 C16.24811193 28.58342386 16.73374529 31.4107899 17.21875 34.23828125 C17.37186646 35.11962234 17.52498291 36.00096344 17.68273926 36.90901184 C17.82288452 37.72963608 17.96302979 38.55026031 18.10742188 39.39575195 C18.23177612 40.11745071 18.35613037 40.83914948 18.48425293 41.5827179 C18.75 43.5 18.75 43.5 18.75 46.5 C20.07 46.17 21.39 45.84 22.75 45.5 C24.00664978 48.40600261 24.75 50.29604584 24.75 53.5 C23.1473218 53.60824843 21.54254252 53.68570645 19.9375 53.75 C19.04417969 53.79640625 18.15085937 53.8428125 17.23046875 53.890625 C14.75 53.5 14.75 53.5 12.92578125 51.484375 C12.53777344 50.82953125 12.14976563 50.1746875 11.75 49.5 C11.255 49.665 10.76 49.83 10.25 50 C7.92107649 50.4657847 5.98713939 50.53435839 3.625 50.5 C-0.0450271 50.21117455 -0.0450271 50.21117455 -2.25 51.5 C0.72 51.995 0.72 51.995 3.75 52.5 C3.75 52.83 3.75 53.16 3.75 53.5 C-11.43 53.5 -26.61 53.5 -42.25 53.5 C-42.25 53.17 -42.25 52.84 -42.25 52.5 C-39.61 52.17 -36.97 51.84 -34.25 51.5 C-34.25 50.84 -34.25 50.18 -34.25 49.5 C-38.87 49.83 -43.49 50.16 -48.25 50.5 C-48.25 49.51 -48.25 48.52 -48.25 47.5 C-48.91 47.5 -49.57 47.5 -50.25 47.5 C-50.559375 48.304375 -50.86875 49.10875 -51.1875 49.9375 C-52.25 52.5 -52.25 52.5 -53.25 53.5 C-55.24958364 53.54080783 -57.25045254 53.54254356 -59.25 53.5 C-58.46348292 45.50374298 -57.1937213 37.61160211 -55.875 29.6875 C-55.66617188 28.39779297 -55.45734375 27.10808594 -55.2421875 25.77929688 C-53.93637189 17.90857291 -52.32771147 10.2037224 -50.25 2.5 C-48.93 2.83 -47.61 3.16 -46.25 3.5 C-46.25 5.15 -46.25 6.8 -46.25 8.5 C-44.6 8.83 -42.95 9.16 -41.25 9.5 C-40.92 8.84 -40.59 8.18 -40.25 7.5 C-39.26 7.83 -38.27 8.16 -37.25 8.5 C-37.58 6.85 -37.91 5.2 -38.25 3.5 C-36.25 5.5 -36.25 5.5 -36.25 8.5 C-34.97125 8.314375 -33.6925 8.12875 -32.375 7.9375 C-28.5 7.375 -28.5 7.375 -26.25 8.5 C-26.25 7.84 -26.25 7.18 -26.25 6.5 C-25.30125 6.231875 -24.3525 5.96375 -23.375 5.6875 C-19.99732727 4.75013412 -19.99732727 4.75013412 -18.25 1.5 C-17.59 1.83 -16.93 2.16 -16.25 2.5 C-16.25 3.82 -16.25 5.14 -16.25 6.5 C-14.27 6.17 -12.29 5.84 -10.25 5.5 C-9.92 4.51 -9.59 3.52 -9.25 2.5 C-10.99635165 1.96706165 -12.74727652 1.44909337 -14.5 0.9375 C-15.47453125 0.64746094 -16.4490625 0.35742188 -17.453125 0.05859375 C-20.30287869 -0.51056097 -21.54521712 -0.34247336 -24.25 0.5 C-25.66534778 0.56456879 -27.08337689 0.58611039 -28.5 0.5625 C-30.35625 0.5315625 -30.35625 0.5315625 -32.25 0.5 C-22.97151178 -5.68565882 -10.14878347 -2.21667644 0 0 Z " fill="#A8D7FE" transform="translate(109.25,51.5)"/>
<path d="M0 0 C0.33 0.66 0.66 1.32 1 2 C1.66644531 1.91621094 2.33289063 1.83242187 3.01953125 1.74609375 C9.84550241 0.99189554 16.19166912 1.1440203 23 2 C22.34 2.66 21.68 3.32 21 4 C20.8028583 8.13997567 20.69234522 11.07703567 22 15 C22.66 15 23.32 15 24 15 C24 15.99 24 16.98 24 18 C24.99 18.33 25.98 18.66 27 19 C28.421875 20.99609375 28.421875 20.99609375 29.75 23.4375 C30.19859375 24.24058594 30.6471875 25.04367188 31.109375 25.87109375 C31.40328125 26.57363281 31.6971875 27.27617188 32 28 C31.67 28.66 31.34 29.32 31 30 C31.66 30.33 32.32 30.66 33 31 C33 32.98 33 34.96 33 37 C32.30132812 37.06058594 31.60265625 37.12117188 30.8828125 37.18359375 C29.97273438 37.26738281 29.06265625 37.35117188 28.125 37.4375 C27.22007813 37.51871094 26.31515625 37.59992188 25.3828125 37.68359375 C22.98889139 37.86989285 22.98889139 37.86989285 21 39 C23.97 39.495 23.97 39.495 27 40 C27 40.33 27 40.66 27 41 C15.78 41 4.56 41 -7 41 C-7 39.35 -7 37.7 -7 36 C-7.99 36 -8.98 36 -10 36 C-10 34.68 -10 33.36 -10 32 C-14.95 32.33 -19.9 32.66 -25 33 C-22.83636364 25.42727273 -22.83636364 25.42727273 -20 22 C-19.30419733 20.68163705 -18.62775567 19.35208914 -18 18 C-17.34 18 -16.68 18 -16 18 C-15.67 17.01 -15.34 16.02 -15 15 C-13.865625 14.71125 -12.73125 14.4225 -11.5625 14.125 C-7.89063471 13.40016402 -7.89063471 13.40016402 -6.625 10.6875 C-6.03025517 8.13009721 -5.44369139 5.58819979 -5 3 C-6.423125 3.309375 -6.423125 3.309375 -7.875 3.625 C-8.90625 3.74875 -9.9375 3.8725 -11 4 C-11.66 3.34 -12.32 2.68 -13 2 C-8.71 2 -4.42 2 0 2 C0 1.34 0 0.68 0 0 Z " fill="#C0F1F5" transform="translate(86,64)"/>
<path d="M0 0 C37.62 0 75.24 0 114 0 C114 3.3 114 6.6 114 10 C76.38 10 38.76 10 0 10 C0 6.7 0 3.4 0 0 Z " fill="#F7F8F7" transform="translate(33,107)"/>
<path d="M0 0 C25.41 0 50.82 0 77 0 C72.49723268 6.75415099 72.49723268 6.75415099 68.875 8.4140625 C68.09157227 8.78088135 67.30814453 9.1477002 66.50097656 9.52563477 C65.6756543 9.88842529 64.85033203 10.25121582 64 10.625 C63.15147461 11.01034912 62.30294922 11.39569824 61.42871094 11.79272461 C40.28980881 21.24336453 40.28980881 21.24336453 28.18603516 16.81616211 C27.38214355 16.50557861 26.57825195 16.19499512 25.75 15.875 C24.91388184 15.55732666 24.07776367 15.23965332 23.21630859 14.91235352 C13.64520457 11.1964368 6.68631557 8.02357868 0 0 Z " fill="#4A74A1" transform="translate(51,119)"/>
<path d="M0 0 C6.6 0 13.2 0 20 0 C20.99921423 5.78371708 21.99691724 11.56765203 22.99072266 17.35229492 C23.32934343 19.32054849 23.66885697 21.28864868 24.00927734 23.2565918 C24.49811193 26.08342386 24.98374529 28.9107899 25.46875 31.73828125 C25.62186646 32.61962234 25.77498291 33.50096344 25.93273926 34.40901184 C26.14295715 35.6399482 26.14295715 35.6399482 26.35742188 36.89575195 C26.48177612 37.61745071 26.60613037 38.33914948 26.73425293 39.0827179 C27 41 27 41 27 44 C28.98 43.505 28.98 43.505 31 43 C32.25664978 45.90600261 33 47.79604584 33 51 C31.3973218 51.10824843 29.79254252 51.18570645 28.1875 51.25 C27.29417969 51.29640625 26.40085938 51.3428125 25.48046875 51.390625 C23 51 23 51 21.17578125 48.984375 C20.78777344 48.32953125 20.39976563 47.6746875 20 47 C18.02 47.495 18.02 47.495 16 48 C16.99 47.505 16.99 47.505 18 47 C18 45.02 18 43.04 18 41 C12.72 40.67 7.44 40.34 2 40 C2 39.67 2 39.34 2 39 C6.62 39 11.24 39 16 39 C15.21625 37.370625 14.4325 35.74125 13.625 34.0625 C13.18414062 33.14597656 12.74328125 32.22945312 12.2890625 31.28515625 C11.20800838 28.87096198 11.20800838 28.87096198 9 28 C9 27.01 9 26.02 9 25 C8.34 25 7.68 25 7 25 C4.30538014 20.95807022 4.76799111 18.7948504 5 14 C5.33 13.67 5.66 13.34 6 13 C1.05 12.67 -3.9 12.34 -9 12 C-9.33 10.68 -9.66 9.36 -10 8 C-6.28561327 6.93874665 -2.85305154 7 1 7 C0.67 4.69 0.34 2.38 0 0 Z " fill="#A3D4FA" transform="translate(101,54)"/>
<path d="M0 0 C2.78785189 4.75974713 2.6130196 9.58227435 3 15 C7.62 15 12.24 15 17 15 C17 17.31 17 19.62 17 22 C20.63 22 24.26 22 28 22 C27.01 23.32 26.02 24.64 25 26 C24.34 26 23.68 26 23 26 C23.804375 26.78375 24.60875 27.5675 25.4375 28.375 C28 31 28 31 29 33 C19.1 33 9.2 33 -1 33 C-1.33 32.01 -1.66 31.02 -2 30 C-3.32 30.66 -4.64 31.32 -6 32 C-5.67 31.34 -5.34 30.68 -5 30 C-29.75 30 -54.5 30 -80 30 C-78.68 31.32 -77.36 32.64 -76 34 C-77.5159375 33.505 -77.5159375 33.505 -79.0625 33 C-81.70423833 32.23542503 -83.43166773 32.0083013 -86.25 32.0625 C-91.43964396 31.97600593 -96.05886178 30.50110528 -101 29 C-101 27.02 -101 25.04 -101 23 C-102.98 23.33 -104.96 23.66 -107 24 C-106.01 24.66 -105.02 25.32 -104 26 C-105.0975223 28.99324263 -105.67682892 29.84610901 -108.625 31.25 C-109.40875 31.4975 -110.1925 31.745 -111 32 C-110.505 31.38125 -110.01 30.7625 -109.5 30.125 C-107.80777227 28.16119096 -107.80777227 28.16119096 -108 26 C-109.29233607 24.62689293 -110.62437146 23.28965176 -112 22 C-108.37 22 -104.74 22 -101 22 C-101 19.69 -101 17.38 -101 15 C-96.71 15 -92.42 15 -88 15 C-87.67 14.01 -87.34 13.02 -87 12 C-87 13.32 -87 14.64 -87 16 C-57.63 16 -28.26 16 2 16 C1.01 11.05 1.01 11.05 0 6 C-0.125 2.375 -0.125 2.375 0 0 Z M-99 17 C-99 20.3 -99 23.6 -99 27 C-61.38 27 -23.76 27 15 27 C15 23.7 15 20.4 15 17 C-22.62 17 -60.24 17 -99 17 Z " fill="#3E434B" transform="translate(132,90)"/>
<path d="M0 0 C1.57889506 0.23665016 3.15835808 0.46953271 4.73828125 0.69921875 C6.36721834 0.94510829 7.99612483 1.19120062 9.625 1.4375 C10.79832886 1.60233887 10.79832886 1.60233887 11.99536133 1.77050781 C17.4332463 2.62495609 17.4332463 2.62495609 19.63549805 4.08227539 C21.69255168 6.97333931 22.05058878 10.1323768 22.60546875 13.5625 C22.79886589 14.68229248 22.79886589 14.68229248 22.99617004 15.82470703 C23.26654813 17.40737987 23.53094389 18.99108466 23.78979492 20.57568359 C24.18195519 22.96620016 24.5961964 25.35207155 25.01367188 27.73828125 C28.16160497 46.16374925 28.16160497 46.16374925 27 52 C26.01 52.66 25.02 53.32 24 54 C24 53.34 24 52.68 24 52 C23.34 52 22.68 52 22 52 C19.9136182 42.44712496 17.89591641 32.88993239 16.25 23.25 C16.12262451 22.52506348 15.99524902 21.80012695 15.86401367 21.05322266 C15.12911341 16.62322123 14.88301266 12.46891655 15 8 C14.36835937 7.96261719 13.73671875 7.92523438 13.0859375 7.88671875 C7.59950872 7.48353738 2.42028779 6.70096052 -2.9375 5.4375 C-11.72479467 3.46228574 -20.15400724 3.39163768 -29 5 C-28.4375 3.125 -28.4375 3.125 -27 1 C-23.8125 -0.1875 -23.8125 -0.1875 -20 -1 C-18.453125 -1.37125 -18.453125 -1.37125 -16.875 -1.75 C-11.08321111 -2.1236638 -5.69609012 -0.99289644 0 0 Z " fill="#9A9FD0" transform="translate(106,46)"/>
<path d="M0 0 C1.32 0 2.64 0 4 0 C4.84075218 3.41488492 5.67129993 6.83217213 6.5 10.25 C6.73847656 11.21808594 6.97695312 12.18617187 7.22265625 13.18359375 C7.44824219 14.11816406 7.67382812 15.05273438 7.90625 16.015625 C8.11572266 16.87446289 8.32519531 17.73330078 8.54101562 18.61816406 C9 21 9 21 9 25 C10.65 25 12.3 25 14 25 C13.67 25.66 13.34 26.32 13 27 C13 29.97 13 32.94 13 36 C5.74 36 -1.52 36 -9 36 C-9 33.03 -9 30.06 -9 27 C-12.00313748 25.49843126 -14.79067522 25.90718796 -18.125 25.9375 C-19.40632813 25.94652344 -20.68765625 25.95554687 -22.0078125 25.96484375 C-22.99523437 25.97644531 -23.98265625 25.98804687 -25 26 C-25 25.34 -25 24.68 -25 24 C-22.60408962 23.97287649 -20.20849043 23.9531018 -17.8125 23.9375 C-17.13896484 23.92912109 -16.46542969 23.92074219 -15.77148438 23.91210938 C-12.04565869 23.89393462 -8.6211958 24.10700608 -5 25 C-4.96261719 24.3709375 -4.92523438 23.741875 -4.88671875 23.09375 C-4.49070769 17.93784132 -3.68899159 13.66027987 -1.69921875 8.89453125 C-0.61779023 5.9644037 -0.32270049 3.0979247 0 0 Z " fill="#E9D6B6" transform="translate(88,69)"/>
<path d="M0 0 C1.17949219 0.01804687 2.35898438 0.03609375 3.57421875 0.0546875 C4.92966797 0.08949219 4.92966797 0.08949219 6.3125 0.125 C6.3125 0.785 6.3125 1.445 6.3125 2.125 C7.3025 2.455 8.2925 2.785 9.3125 3.125 C10.734375 5.12109375 10.734375 5.12109375 12.0625 7.5625 C12.73539063 8.76712891 12.73539063 8.76712891 13.421875 9.99609375 C13.86273438 11.04990234 13.86273438 11.04990234 14.3125 12.125 C13.9825 12.785 13.6525 13.445 13.3125 14.125 C13.9725 14.455 14.6325 14.785 15.3125 15.125 C15.3125 17.105 15.3125 19.085 15.3125 21.125 C14.61382812 21.18558594 13.91515625 21.24617188 13.1953125 21.30859375 C12.28523438 21.39238281 11.37515625 21.47617188 10.4375 21.5625 C9.53257813 21.64371094 8.62765625 21.72492188 7.6953125 21.80859375 C5.30139139 21.99489285 5.30139139 21.99489285 3.3125 23.125 C5.2925 23.455 7.2725 23.785 9.3125 24.125 C9.3125 24.455 9.3125 24.785 9.3125 25.125 C5.3525 25.125 1.3925 25.125 -2.6875 25.125 C-3.0175 21.825 -3.3475 18.525 -3.6875 15.125 C-4.6775 14.795 -5.6675 14.465 -6.6875 14.125 C-7.63671875 11.40234375 -7.63671875 11.40234375 -8.375 8.0625 C-8.62636719 6.95777344 -8.87773438 5.85304688 -9.13671875 4.71484375 C-9.31847656 3.86019531 -9.50023438 3.00554687 -9.6875 2.125 C-6.05554504 -0.29630331 -4.30400652 -0.08522785 0 0 Z " fill="#EFF2E9" transform="translate(103.6875,79.875)"/>
<path d="M0 0 C0.33 0.66 0.66 1.32 1 2 C2.07378906 1.9278125 3.14757812 1.855625 4.25390625 1.78125 C5.69009642 1.68738136 7.12629478 1.59363805 8.5625 1.5 C9.26697266 1.45230469 9.97144531 1.40460937 10.69726562 1.35546875 C14.09627767 1.13617765 17.42971127 1.00349714 20.83984375 1.03125 C24.0273315 1.16135143 24.0273315 1.16135143 27 0 C29.26171875 0.77734375 29.26171875 0.77734375 31.6875 1.9375 C32.89986328 2.50791016 32.89986328 2.50791016 34.13671875 3.08984375 C35.05904297 3.54037109 35.05904297 3.54037109 36 4 C35.67 5.32 35.34 6.64 35 8 C32.125 8.1875 32.125 8.1875 29 8 C28.34 7.01 27.68 6.02 27 5 C26.608125 5.495 26.21625 5.99 25.8125 6.5 C23.44908285 8.45593143 21.98564997 8.24207973 19 8 C19 8.66 19 9.32 19 10 C15.7 10 12.4 10 9 10 C8.67 9.34 8.34 8.68 8 8 C8 8.66 8 9.32 8 10 C1.25 11.125 1.25 11.125 -1 10 C-1.625 7.4375 -1.625 7.4375 -2 5 C-2.99 4.67 -3.98 4.34 -5 4 C-5.04898438 4.6290625 -5.09796875 5.258125 -5.1484375 5.90625 C-5.63435199 11.46913314 -6.50553626 16.61993052 -8 22 C-8.33 22 -8.66 22 -9 22 C-9.309375 20.906875 -9.61875 19.81375 -9.9375 18.6875 C-10.58337897 16.44592006 -11.2623117 14.2130649 -12 12 C-11.6953125 9.5546875 -11.6953125 9.5546875 -11.125 6.875 C-10.94195312 5.98554687 -10.75890625 5.09609375 -10.5703125 4.1796875 C-10 2 -10 2 -9 1 C-7.48530552 0.76807135 -5.96245438 0.58784762 -4.4375 0.4375 C-3.61121094 0.35371094 -2.78492188 0.26992188 -1.93359375 0.18359375 C-0.97646484 0.09271484 -0.97646484 0.09271484 0 0 Z " fill="#9C9DCD" transform="translate(64,50)"/>
<path d="M0 0 C2.10388569 -0.05402274 4.20816714 -0.09280256 6.3125 -0.125 C8.07013672 -0.15980469 8.07013672 -0.15980469 9.86328125 -0.1953125 C13 0 13 0 16 2 C15.01 5.96 14.02 9.92 13 14 C6.4 13.67 -0.2 13.34 -7 13 C-7 13.66 -7 14.32 -7 15 C-6.34 14.67 -5.68 14.34 -5 14 C-3.02362586 13.87772074 -1.0426169 13.82450071 0.9375 13.8125 C2.52884766 13.79123047 2.52884766 13.79123047 4.15234375 13.76953125 C7 14 7 14 10 16 C9.67 17.32 9.34 18.64 9 20 C8.01 20 7.02 20 6 20 C6 18.68 6 17.36 6 16 C1.05 16.33 -3.9 16.66 -9 17 C-6.83636364 9.42727273 -6.83636364 9.42727273 -4 6 C-3.30419733 4.68163705 -2.62775567 3.35208914 -2 2 C-1.34 2 -0.68 2 0 2 C0 1.34 0 0.68 0 0 Z " fill="#F0F2EB" transform="translate(70,80)"/>
<path d="M0 0 C2.96546426 4.9665499 2.63107029 10.34307771 3 16 C7.29 16 11.58 16 16 16 C16 17.98 16 19.96 16 22 C15.67 22 15.34 22 15 22 C15 20.35 15 18.7 15 17 C-22.62 17 -60.24 17 -99 17 C-99 20.63 -99 24.26 -99 28 C-93.39 28 -87.78 28 -82 28 C-82.33 29.32 -82.66 30.64 -83 32 C-89.41481258 32.42765417 -94.88595404 30.85743168 -101 29 C-101 27.02 -101 25.04 -101 23 C-102.98 23.33 -104.96 23.66 -107 24 C-106.01 24.66 -105.02 25.32 -104 26 C-105.0975223 28.99324263 -105.67682892 29.84610901 -108.625 31.25 C-109.40875 31.4975 -110.1925 31.745 -111 32 C-110.505 31.38125 -110.01 30.7625 -109.5 30.125 C-107.80777227 28.16119096 -107.80777227 28.16119096 -108 26 C-109.29233607 24.62689293 -110.62437146 23.28965176 -112 22 C-108.37 22 -104.74 22 -101 22 C-101 19.69 -101 17.38 -101 15 C-96.71 15 -92.42 15 -88 15 C-87.67 14.01 -87.34 13.02 -87 12 C-87 13.32 -87 14.64 -87 16 C-57.63 16 -28.26 16 2 16 C1.01 11.05 1.01 11.05 0 6 C-0.125 2.375 -0.125 2.375 0 0 Z " fill="#19171A" transform="translate(132,90)"/>
<path d="M0 0 C1.09054688 0.23847656 2.18109375 0.47695313 3.3046875 0.72265625 C5.95579347 1.30403914 8.6038446 1.89655845 11.25 2.5 C11.25 2.83 11.25 3.16 11.25 3.5 C4.81688704 3.59507063 -1.40758005 3.65316726 -7.75 2.5 C-7.42 4.81 -7.09 7.12 -6.75 9.5 C-13.03571429 11.92857143 -13.03571429 11.92857143 -16.75 10.5 C-17.08 12.15 -17.41 13.8 -17.75 15.5 C-18.08 15.5 -18.41 15.5 -18.75 15.5 C-18.75 13.85 -18.75 12.2 -18.75 10.5 C-20.07 10.83 -21.39 11.16 -22.75 11.5 C-22.75 10.84 -22.75 10.18 -22.75 9.5 C-23.34167969 9.58378906 -23.93335937 9.66757812 -24.54296875 9.75390625 C-28.84939457 10.30889424 -32.50552644 10.73226652 -36.75 9.5 C-36.75 11.15 -36.75 12.8 -36.75 14.5 C-37.41 14.17 -38.07 13.84 -38.75 13.5 C-38.75 11.85 -38.75 10.2 -38.75 8.5 C-38.09 8.5 -37.43 8.5 -36.75 8.5 C-37.08 6.85 -37.41 5.2 -37.75 3.5 C-35.75 5.5 -35.75 5.5 -35.75 8.5 C-34.47125 8.314375 -33.1925 8.12875 -31.875 7.9375 C-28 7.375 -28 7.375 -25.75 8.5 C-25.75 7.84 -25.75 7.18 -25.75 6.5 C-24.326875 6.0978125 -24.326875 6.0978125 -22.875 5.6875 C-19.49732727 4.75013412 -19.49732727 4.75013412 -17.75 1.5 C-17.09 1.83 -16.43 2.16 -15.75 2.5 C-15.75 3.82 -15.75 5.14 -15.75 6.5 C-13.77 6.17 -11.79 5.84 -9.75 5.5 C-9.42 4.51 -9.09 3.52 -8.75 2.5 C-10.49635165 1.96706165 -12.24727652 1.44909337 -14 0.9375 C-14.97453125 0.64746094 -15.9490625 0.35742188 -16.953125 0.05859375 C-19.80287869 -0.51056097 -21.04521712 -0.34247336 -23.75 0.5 C-25.16534778 0.56456879 -26.58337689 0.58611039 -28 0.5625 C-29.85625 0.5315625 -29.85625 0.5315625 -31.75 0.5 C-22.58240357 -5.61173095 -10.0195385 -2.28841311 0 0 Z " fill="#B0DAF2" transform="translate(108.75,51.5)"/>
<path d="M0 0 C0.66 0 1.32 0 2 0 C2.33 0.66 2.66 1.32 3 2 C7.29 2 11.58 2 16 2 C16 2.66 16 3.32 16 4 C20.32017697 6.16008848 26.12983359 5.18496248 30.875 5.1875 C32.67130859 5.20586914 32.67130859 5.20586914 34.50390625 5.22460938 C35.65503906 5.22654297 36.80617187 5.22847656 37.9921875 5.23046875 C39.57555908 5.23663208 39.57555908 5.23663208 41.19091797 5.24291992 C44.0183779 4.99841074 45.59344236 4.44171811 48 3 C51.14341993 1.42829004 54.55771451 1.76824217 58 2 C58.99 2.33 59.98 2.66 61 3 C61.33 2.34 61.66 1.68 62 1 C62.38800781 1.64453125 62.77601562 2.2890625 63.17578125 2.953125 C64.83946485 5.20878584 64.83946485 5.20878584 67.48046875 5.609375 C68.37378906 5.65578125 69.26710938 5.7021875 70.1875 5.75 C71.53908203 5.83507812 71.53908203 5.83507812 72.91796875 5.921875 C73.60503906 5.94765625 74.29210937 5.9734375 75 6 C75 6.33 75 6.66 75 7 C45.63 7 16.26 7 -14 7 C-14 6.67 -14 6.34 -14 6 C-13.24074219 5.98582031 -12.48148438 5.97164063 -11.69921875 5.95703125 C-8.7208174 5.81409889 -5.91989218 5.61335013 -3 5 C-0.8613923 2.61012067 -0.8613923 2.61012067 0 0 Z " fill="#4D5E74" transform="translate(59,99)"/>
<path d="M0 0 C0.99 0.495 0.99 0.495 2 1 C-8.82665147 8.44332289 -24.59271494 16.91568614 -38 16 C-41.17090487 15.17484285 -44.19526086 14.05395227 -47.25 12.875 C-48.08249268 12.56167725 -48.91498535 12.24835449 -49.77270508 11.92553711 C-56.17249048 9.45853209 -62.14508111 6.59189406 -68 3 C-67.34 2.67 -66.68 2.34 -66 2 C-63.51928529 3.19727364 -61.17810907 4.5785863 -58.80078125 5.96875 C-55.9692717 7.26628662 -55.9692717 7.26628662 -52.6953125 6.50390625 C-48.03729194 5.86872163 -44.92430218 6.90907343 -40.5625 8.4375 C-39.46518555 8.80198242 -39.46518555 8.80198242 -38.34570312 9.17382812 C-36.55932563 9.76928729 -34.77898352 10.38280164 -33 11 C-33.33 11.99 -33.66 12.98 -34 14 C-33.07719238 13.68977905 -33.07719238 13.68977905 -32.13574219 13.37329102 C-29.34102344 12.43477786 -26.54552276 11.49861542 -23.75 10.5625 C-22.78191406 10.23701172 -21.81382813 9.91152344 -20.81640625 9.57617188 C-19.88183594 9.26357422 -18.94726562 8.95097656 -17.984375 8.62890625 C-17.12553711 8.34088135 -16.26669922 8.05285645 -15.38183594 7.75610352 C-13.26653722 7.08461109 -11.15928718 6.50922461 -9 6 C-9 5.01 -9 4.02 -9 3 C-8.43410156 2.86722656 -7.86820313 2.73445313 -7.28515625 2.59765625 C-6.18494141 2.33275391 -6.18494141 2.33275391 -5.0625 2.0625 C-4.33160156 1.88847656 -3.60070312 1.71445313 -2.84765625 1.53515625 C-1.00030102 1.16112431 -1.00030102 1.16112431 0 0 Z " fill="#70708E" transform="translate(124,122)"/>
<path d="M0 0 C4.62 0 9.24 0 14 0 C14 2.31 14 4.62 14 7 C17.63 7 21.26 7 25 7 C24.01 8.32 23.02 9.64 22 11 C21.34 11 20.68 11 20 11 C20.804375 11.78375 21.60875 12.5675 22.4375 13.375 C25 16 25 16 26 18 C16.1 18 6.2 18 -4 18 C-4 17.67 -4 17.34 -4 17 C0.29 16.34 4.58 15.68 9 15 C9 14.34 9 13.68 9 13 C9.99 13 10.98 13 12 13 C12.33 9.04 12.66 5.08 13 1 C8.71 1 4.42 1 0 1 C0 0.67 0 0.34 0 0 Z " fill="#525252" transform="translate(135,105)"/>
<path d="M0 0 C1.32 0 2.64 0 4 0 C3.98839844 0.88042969 3.97679688 1.76085937 3.96484375 2.66796875 C3.95582031 3.82941406 3.94679688 4.99085937 3.9375 6.1875 C3.92589844 7.33605469 3.91429688 8.48460938 3.90234375 9.66796875 C3.98807168 12.59300586 4.32150977 15.16316291 5 18 C5.66 18 6.32 18 7 18 C8.34261242 24.46895075 8.34261242 24.46895075 6.75 26.9375 C5 28 5 28 2 28 C2.99 29.32 3.98 30.64 5 32 C3.02 32 1.04 32 -1 32 C-0.67 30.68 -0.34 29.36 0 28 C-1.32 27.34 -2.64 26.68 -4 26 C-2.125 19.125 -2.125 19.125 -1 18 C-0.84417697 16.65984779 -0.74955858 15.31241097 -0.68359375 13.96484375 C-0.64169922 13.15595703 -0.59980469 12.34707031 -0.55664062 11.51367188 C-0.49766602 10.2384668 -0.49766602 10.2384668 -0.4375 8.9375 C-0.39431641 8.08349609 -0.35113281 7.22949219 -0.30664062 6.34960938 C-0.20023298 4.23327963 -0.09958269 2.11666187 0 0 Z " fill="#FEF2D3" transform="translate(88,69)"/>
<path d="M0 0 C2.97 0 5.94 0 9 0 C9 3 9 3 8 6 C10.31 5.34 12.62 4.68 15 4 C14.375 6.875 14.375 6.875 13 10 C7.4396141 12.91258309 1.39655305 12.68472944 -4.5 11 C-5.7375 10.505 -5.7375 10.505 -7 10 C-6.67 8.68 -6.34 7.36 -6 6 C-4.02 5.67 -2.04 5.34 0 5 C0 3.35 0 1.7 0 0 Z " fill="#98D1FB" transform="translate(86,119)"/>
<path d="M0 0 C-0.33 1.32 -0.66 2.64 -1 4 C-3.875 4.1875 -3.875 4.1875 -7 4 C-7.66 3.01 -8.32 2.02 -9 1 C-9.391875 1.495 -9.78375 1.99 -10.1875 2.5 C-12.55091715 4.45593143 -14.01435003 4.24207973 -17 4 C-17 4.66 -17 5.32 -17 6 C-20.3 6 -23.6 6 -27 6 C-27.33 4.35 -27.66 2.7 -28 1 C-23.58763599 -1.02968745 -19.84715172 -2.33902477 -15 -3 C-9.47086744 -4.84304419 -5.05640141 -2.28033789 0 0 Z " fill="#9CC3C8" transform="translate(100,54)"/>
<path d="M0 0 C2.25028329 0.14139481 4.50022206 0.28828003 6.75 0.4375 C8.62945312 0.55931641 8.62945312 0.55931641 10.546875 0.68359375 C13.18317553 0.92515522 15.48037294 1.24283934 18 2 C18 3.98 18 5.96 18 8 C17.30132812 8.06058594 16.60265625 8.12117188 15.8828125 8.18359375 C14.51769531 8.30927734 14.51769531 8.30927734 13.125 8.4375 C12.22007813 8.51871094 11.31515625 8.59992188 10.3828125 8.68359375 C7.98889139 8.86989285 7.98889139 8.86989285 6 10 C8.97 10.495 8.97 10.495 12 11 C12 11.33 12 11.66 12 12 C8.04 12 4.08 12 0 12 C-1.125 2.25 -1.125 2.25 0 0 Z " fill="#E5E9EF" transform="translate(101,93)"/>
<path d="M0 0 C8.58 0 17.16 0 26 0 C26.33 1.98 26.66 3.96 27 6 C25.865625 6.12375 24.73125 6.2475 23.5625 6.375 C21.7990625 6.684375 21.7990625 6.684375 20 7 C19.67 7.66 19.34 8.32 19 9 C12.04634211 7.21440518 6.12685097 4.7441867 0 1 C0 0.67 0 0.34 0 0 Z " fill="#94CCF7" transform="translate(60,119)"/>
<path d="M0 0 C4.54805635 -0.17835515 7.8794254 0.00214565 12 2 C12 3.32 12 4.64 12 6 C10.02 6 8.04 6 6 6 C6 7.32 6 8.64 6 10 C6.66 10 7.32 10 8 10 C8 10.66 8 11.32 8 12 C2.39 12 -3.22 12 -9 12 C-9.33 10.68 -9.66 9.36 -10 8 C-6.28561327 6.93874665 -2.85305154 7 1 7 C0.67 4.69 0.34 2.38 0 0 Z " fill="#A4CBCC" transform="translate(101,54)"/>
<path d="M0 0 C7.92 0 15.84 0 24 0 C20.8780742 3.1219258 17.97521869 4.57193637 14 6.25 C13.3709375 6.53101562 12.741875 6.81203125 12.09375 7.1015625 C7.369782 9.12326067 7.369782 9.12326067 4 8 C4 7.34 4 6.68 4 6 C2.35 6 0.7 6 -1 6 C-0.67 4.02 -0.34 2.04 0 0 Z " fill="#96CFFB" transform="translate(95,119)"/>
<path d="M0 0 C0 0.33 0 0.66 0 1 C-0.81984375 1.09796875 -1.6396875 1.1959375 -2.484375 1.296875 C-3.56203125 1.44640625 -4.6396875 1.5959375 -5.75 1.75 C-6.81734375 1.88921875 -7.8846875 2.0284375 -8.984375 2.171875 C-12.42649022 3.11711908 -13.68837445 4.35213801 -16 7 C-19.72018334 8.59436429 -24.01886438 8.0699809 -28 8 C-29.32 8 -30.64 8 -32 8 C-33.98 8 -35.96 8 -38 8 C-38.99 12.62 -39.98 17.24 -41 22 C-41.33 22 -41.66 22 -42 22 C-41.91266027 19.91589342 -41.80447722 17.83265331 -41.6875 15.75 C-41.62949219 14.58984375 -41.57148437 13.4296875 -41.51171875 12.234375 C-40.95311914 8.70368431 -40.47548685 7.51214391 -38 5 C-35.14013672 4.08691406 -35.14013672 4.08691406 -31.6796875 3.515625 C-30.4215625 3.30292969 -29.1634375 3.09023438 -27.8671875 2.87109375 C-27.21073242 2.76909668 -26.55427734 2.66709961 -25.87792969 2.56201172 C-23.90001664 2.25389703 -21.92647557 1.9181298 -19.953125 1.58203125 C-13.21934796 0.47802096 -6.82187203 -0.26869518 0 0 Z " fill="#6A6C83" transform="translate(93,44)"/>
<path d="M0 0 C4.65736466 1.22160384 9.23339819 2.28500973 14 3 C14.1546875 3.9590625 14.1546875 3.9590625 14.3125 4.9375 C14.6528125 5.9584375 14.6528125 5.9584375 15 7 C15.99 7.33 16.98 7.66 18 8 C13.45017201 7.56668305 9.1136276 7.08051097 4.6875 5.9375 C-3.06944096 4.11713207 -11.20631686 4.5829667 -19 6 C-18.4375 4.125 -18.4375 4.125 -17 2 C-11.63414777 0.00095701 -5.54661916 -1.84887305 0 0 Z " fill="#989FC4" transform="translate(96,45)"/>
<path d="M0 0 C-2.64322091 3.03192987 -4.23287686 4.80445881 -8.1875 5.8125 C-9.78932807 5.91928854 -11.39461626 6 -13 6 C-13 6.99 -13 7.98 -13 9 C-31.68774704 17 -31.68774704 17 -38 17 C-37.41796875 15.140625 -37.41796875 15.140625 -36 13 C-33.05078125 11.796875 -33.05078125 11.796875 -29.3125 10.75 C-22.7315705 8.79745177 -16.99121093 6.10797979 -11.10083008 2.59082031 C-7.21462641 0.3473499 -4.4783859 -0.4021686 0 0 Z " fill="#979ACA" transform="translate(128,119)"/>
<path d="M0 0 C0.66 0.33 1.32 0.66 2 1 C2.80805798 3.77511882 3.50015609 6.49607392 4.125 9.3125 C4.39763672 10.47168945 4.39763672 10.47168945 4.67578125 11.65429688 C5.50349953 15.27323056 6 18.24345877 6 22 C7.65 22 9.3 22 11 22 C10.67 22.66 10.34 23.32 10 24 C9.93049459 25.54023996 9.91547643 27.08334988 9.9375 28.625 C9.95103516 29.85089844 9.95103516 29.85089844 9.96484375 31.1015625 C9.97644531 31.72804688 9.98804687 32.35453125 10 33 C4.95575532 32.55491959 2.55556591 30.39019075 -1 27 C-1 26.34 -1 25.68 -1 25 C0.65 24.67 2.3 24.34 4 24 C4 21.03 4 18.06 4 15 C3.34 15 2.68 15 2 15 C-0.59227518 10.13948404 -0.18689553 5.34728867 0 0 Z " fill="#F8D7A8" transform="translate(91,72)"/>
<path d="M0 0 C4.29 0 8.58 0 13 0 C13 0.33 13 0.66 13 1 C9.37 1 5.74 1 2 1 C2 4.96 2 8.92 2 13 C7.61 13 13.22 13 19 13 C18.67 14.32 18.34 15.64 18 17 C11.58518742 17.42765417 6.11404596 15.85743168 0 14 C0 12.02 0 10.04 0 8 C-1.98 8.33 -3.96 8.66 -6 9 C-5.01 9.66 -4.02 10.32 -3 11 C-4.0975223 13.99324263 -4.67682892 14.84610901 -7.625 16.25 C-8.40875 16.4975 -9.1925 16.745 -10 17 C-9.505 16.38125 -9.01 15.7625 -8.5 15.125 C-6.80777227 13.16119096 -6.80777227 13.16119096 -7 11 C-8.29233607 9.62689293 -9.62437146 8.28965176 -11 7 C-7.37 7 -3.74 7 0 7 C0 4.69 0 2.38 0 0 Z " fill="#434343" transform="translate(31,105)"/>
<path d="M0 0 C3.63 0 7.26 0 11 0 C10.34 0.66 9.68 1.32 9 2 C8.8028583 6.13997567 8.69234522 9.07703567 10 13 C7.03 13 4.06 13 1 13 C0.67 8.71 0.34 4.42 0 0 Z " fill="#C0E8FD" transform="translate(98,66)"/>
<path d="M0 0 C2.31 0 4.62 0 7 0 C7 1.98 7 3.96 7 6 C13.43028541 7.32388229 19.4294834 8.24794402 26 8 C26 8.66 26 9.32 26 10 C15.77 10 5.54 10 -5 10 C-3 8 -3 8 -0.5 7.0625 C2.30191747 6.1416526 2.30191747 6.1416526 4 3 C2.68 2.34 1.36 1.68 0 1 C0 0.67 0 0.34 0 0 Z " fill="#8F8F8F" transform="translate(24,113)"/>
<path d="M0 0 C6.63799591 -0.22835336 12.7896783 0.61903628 19.3125 1.8125 C20.30056641 1.97814453 21.28863281 2.14378906 22.30664062 2.31445312 C23.72686523 2.5706543 23.72686523 2.5706543 25.17578125 2.83203125 C26.45835815 3.05983276 26.45835815 3.05983276 27.7668457 3.29223633 C30.30967 4.09814511 31.39633299 4.88468685 33 7 C33.51171875 10.13671875 33.51171875 10.13671875 33.6875 13.6875 C33.78611328 15.45673828 33.78611328 15.45673828 33.88671875 17.26171875 C33.94279297 18.61716797 33.94279297 18.61716797 34 20 C31.99967376 16.37285241 31.34268763 12.97458389 30.66015625 8.92578125 C30.44230469 8.29027344 30.22445312 7.65476562 30 7 C29.01 6.67 28.02 6.34 27 6 C27 6.66 27 7.32 27 8 C20.375 8.125 20.375 8.125 17 7 C16.3125 4.9375 16.3125 4.9375 16 3 C15.18015625 2.95101562 14.3603125 2.90203125 13.515625 2.8515625 C12.43796875 2.77679688 11.3603125 2.70203125 10.25 2.625 C9.18265625 2.55539063 8.1153125 2.48578125 7.015625 2.4140625 C4.19793568 2.0271777 2.4169634 1.44313834 0 0 Z " fill="#747793" transform="translate(94,45)"/>
<path d="M0 0 C0.98484375 0.00902344 1.9696875 0.01804687 2.984375 0.02734375 C4.10585937 0.04474609 4.10585937 0.04474609 5.25 0.0625 C5.25 1.3825 5.25 2.7025 5.25 4.0625 C6.24 4.0625 7.23 4.0625 8.25 4.0625 C8.25 5.7125 8.25 7.3625 8.25 9.0625 C4.29 9.0625 0.33 9.0625 -3.75 9.0625 C-3.75 8.7325 -3.75 8.4025 -3.75 8.0625 C-1.11 7.7325 1.53 7.4025 4.25 7.0625 C4.25 6.4025 4.25 5.7425 4.25 5.0625 C-0.37 5.3925 -4.99 5.7225 -9.75 6.0625 C-9.75 4.4125 -9.75 2.7625 -9.75 1.0625 C-6.43929162 0.06140485 -3.44915231 -0.04106134 0 0 Z " fill="#D7DDEA" transform="translate(70.75,95.9375)"/>
<path d="M0 0 C-1.32 1.32 -2.64 2.64 -4 4 C-4 3.34 -4 2.68 -4 2 C-5.32 2.33 -6.64 2.66 -8 3 C-7.67 4.65 -7.34 6.3 -7 8 C-13.75 9.125 -13.75 9.125 -16 8 C-16.34153937 6.33499557 -16.67449498 4.66821323 -17 3 C-17.66 2.34 -18.32 1.68 -19 1 C-16.96044851 0.63384906 -14.91821752 0.28260721 -12.875 -0.0625 C-11.73804687 -0.25972656 -10.60109375 -0.45695312 -9.4296875 -0.66015625 C-6.0246108 -0.99756134 -3.32821869 -0.72330588 0 0 Z " fill="#ADD9F3" transform="translate(79,52)"/>
<path d="M0 0 C4.62 0 9.24 0 14 0 C14 0.66 14 1.32 14 2 C15.32 1.67 16.64 1.34 18 1 C18 2.32 18 3.64 18 5 C12.06 5 6.12 5 0 5 C0 3.35 0 1.7 0 0 Z " fill="#39403F" transform="translate(72,61)"/>
<path d="M0 0 C5.65253435 -0.58880566 8.41380214 0.49506989 13.06640625 3.6875 C15.58437363 5.39666573 18.25507766 6.69616189 21 8 C21 8.66 21 9.32 21 10 C21.66 10.33 22.32 10.66 23 11 C17.84730168 11.40474368 14.85728187 10.24832104 10.375 7.75 C8.71597656 6.84507813 8.71597656 6.84507813 7.0234375 5.921875 C4.25813094 4.16408323 2.19177047 2.4162933 0 0 Z " fill="#999ACB" transform="translate(51,119)"/>
<path d="M0 0 C0.9075 0.185625 1.815 0.37125 2.75 0.5625 C5.86236855 0.98147269 7.08650757 0.75027906 10 0 C11.49789742 -0.08966287 12.99943021 -0.13013894 14.5 -0.125 C15.2528125 -0.12757812 16.005625 -0.13015625 16.78125 -0.1328125 C19.82144221 0.04917084 22.27769528 0.63884764 25 2 C24.67 2.66 24.34 3.32 24 4 C16.41 4 8.82 4 1 4 C0.67 2.68 0.34 1.36 0 0 Z " fill="#B6B6B6" transform="translate(110,110)"/>
<path d="M0 0 C2.31 0 4.62 0 7 0 C6.01 1.65 5.02 3.3 4 5 C4.99 5.66 5.98 6.32 7 7 C7 7.66 7 8.32 7 9 C1.39 9 -4.22 9 -10 9 C-6.99382731 5.99382731 -4.17618402 6.40414684 0 6 C0 4.02 0 2.04 0 0 Z " fill="#E0E0E0" transform="translate(149,113)"/>
<path d="M0 0 C2 2 2 2 2 5 C3.1034375 4.82597656 4.206875 4.65195312 5.34375 4.47265625 C10.43751127 3.83593609 15.39057776 4.11444787 20.5 4.4375 C21.4178125 4.48970703 22.335625 4.54191406 23.28125 4.59570312 C25.52129261 4.7240389 27.76072975 4.85892597 30 5 C28.69921875 6.51953125 28.69921875 6.51953125 27 8 C23.8125 7.6875 23.8125 7.6875 21 7 C20.67 8.65 20.34 10.3 20 12 C19.67 12 19.34 12 19 12 C19 10.35 19 8.7 19 7 C17.68 7.33 16.36 7.66 15 8 C15 7.34 15 6.68 15 6 C14.40832031 6.08378906 13.81664063 6.16757812 13.20703125 6.25390625 C8.90060543 6.80889424 5.24447356 7.23226652 1 6 C1 7.65 1 9.3 1 11 C0.34 10.67 -0.32 10.34 -1 10 C-1 8.35 -1 6.7 -1 5 C-0.34 5 0.32 5 1 5 C0.67 3.35 0.34 1.7 0 0 Z " fill="#B0DAD6" transform="translate(71,55)"/>
<path d="M0 0 C0.66 0 1.32 0 2 0 C2.33 0.66 2.66 1.32 3 2 C7.29 2 11.58 2 16 2 C16 2.66 16 3.32 16 4 C16.66 4.33 17.32 4.66 18 5 C10.97195301 5.85373239 4.07721931 6.12109311 -3 6 C-2.01 4.02 -1.02 2.04 0 0 Z " fill="#5C88AF" transform="translate(59,99)"/>
<path d="M0 0 C0.66 0.33 1.32 0.66 2 1 C-7.55713747 7.57053201 -24.10150135 17.15146761 -36 16 C-33.37510718 14.25007146 -31.4050625 13.32599549 -28.47265625 12.30859375 C-27.59802734 12.00373047 -26.72339844 11.69886719 -25.82226562 11.38476562 C-24.91154297 11.07216797 -24.00082031 10.75957031 -23.0625 10.4375 C-22.15564453 10.12103516 -21.24878906 9.80457031 -20.31445312 9.47851562 C-16.56421996 8.17876594 -12.86629012 6.91091762 -9 6 C-9 5.01 -9 4.02 -9 3 C-8.43410156 2.86722656 -7.86820313 2.73445313 -7.28515625 2.59765625 C-6.55167969 2.42105469 -5.81820312 2.24445313 -5.0625 2.0625 C-4.33160156 1.88847656 -3.60070312 1.71445313 -2.84765625 1.53515625 C-1.00030102 1.16112431 -1.00030102 1.16112431 0 0 Z " fill="#464650" transform="translate(124,122)"/>
<path d="M0 0 C0.33 0.66 0.66 1.32 1 2 C1.66 2 2.32 2 3 2 C4.34261242 8.46895075 4.34261242 8.46895075 2.75 10.9375 C1 12 1 12 -2 12 C-1.01 13.32 -0.02 14.64 1 16 C-0.98 16 -2.96 16 -5 16 C-4.67 14.68 -4.34 13.36 -4 12 C-5.32 11.34 -6.64 10.68 -8 10 C-7.34 7.69 -6.68 5.38 -6 3 C-5.67 3 -5.34 3 -5 3 C-5 5.64 -5 8.28 -5 11 C-3.35 11 -1.7 11 0 11 C0 7.37 0 3.74 0 0 Z " fill="#FEE1BA" transform="translate(92,85)"/>
<path d="M0 0 C2.13849053 3.63543389 2.87329614 7.46518459 3.625 11.5625 C3.81956787 12.62235107 3.81956787 12.62235107 4.01806641 13.70361328 C6.0671334 25.5387879 6.0671334 25.5387879 5 31 C4.01 31.66 3.02 32.32 2 33 C2 32.34 2 31.68 2 31 C1.34 31 0.68 31 0 31 C0 29.35 0 27.7 0 26 C0.99 25.67 1.98 25.34 3 25 C2.7834375 23.69804688 2.566875 22.39609375 2.34375 21.0546875 C2.06225184 19.32816544 1.78101565 17.60160066 1.5 15.875 C1.35691406 15.0190625 1.21382812 14.163125 1.06640625 13.28125 C0.34304266 8.80328495 -0.17918816 4.55436565 0 0 Z " fill="#6B6E89" transform="translate(128,67)"/>
<path d="M0 0 C0.763125 0.33 1.52625 0.66 2.3125 1 C2.3125 1.66 2.3125 2.32 2.3125 3 C1.38308594 2.98839844 0.45367187 2.97679687 -0.50390625 2.96484375 C-9.64459317 2.88246463 -9.64459317 2.88246463 -18.6875 4 C-15.359018 -3.37021015 -6.93985165 -1.88199367 0 0 Z " fill="#ACAFD5" transform="translate(95.6875,47)"/>
<path d="M0 0 C2.60018816 3.90028225 2.15085514 7.47434569 2 12 C5.63 12 9.26 12 13 12 C13 12.33 13 12.66 13 13 C10.89594609 13.16808419 8.79175242 13.33441948 6.6875 13.5 C5.51574219 13.5928125 4.34398438 13.685625 3.13671875 13.78125 C1.094806 13.92364989 -0.9531279 14 -3 14 C-2.88655624 11.8535247 -2.75893655 9.70779408 -2.625 7.5625 C-2.52058594 5.77005859 -2.52058594 5.77005859 -2.4140625 3.94140625 C-2.27742188 2.97074219 -2.14078125 2.00007813 -2 1 C-1.34 0.67 -0.68 0.34 0 0 Z " fill="#D1F5FC" transform="translate(97,67)"/>
<path d="M0 0 C1.35432675 1.31200404 2.68733482 2.64631404 4 4 C4 4.33 4 4.66 4 5 C-3.07721931 5.12109311 -9.97195301 4.85373239 -17 4 C-12.08931563 1.54465782 -8.57713745 0.62450956 -3 1 C-2.01 1.33 -1.02 1.66 0 2 C0 1.34 0 0.68 0 0 Z " fill="#46749A" transform="translate(120,100)"/>
<path d="M0 0 C0.33 0.99 0.66 1.98 1 3 C1.99 3 2.98 3 4 3 C4.33 2.01 4.66 1.02 5 0 C7 3 7 3 6.75 5.4375 C6 8 6 8 5 9.9375 C3.7228974 12.57152412 3.39343003 15.11484648 3 18 C2.67 18 2.34 18 2 18 C1.66191314 15.93827387 1.32972639 13.8755797 1 11.8125 C0.814375 10.66394531 0.62875 9.51539062 0.4375 8.33203125 C0.06510523 5.49584607 -0.08596021 2.85280436 0 0 Z " fill="#8B9DCB" transform="translate(122,61)"/>
<path d="M0 0 C0.99 0.33 1.98 0.66 3 1 C3 2.32 3 3.64 3 5 C4.670625 4.9690625 4.670625 4.9690625 6.375 4.9375 C10 5 10 5 12 6 C11.67 6.66 11.34 7.32 11 8 C5.06 7.67 -0.88 7.34 -7 7 C-7 6.34 -7 5.68 -7 5 C-5.5459375 4.5978125 -5.5459375 4.5978125 -4.0625 4.1875 C-3.051875 3.795625 -2.04125 3.40375 -1 3 C-0.67 2.01 -0.34 1.02 0 0 Z " fill="#B7EDFA" transform="translate(90,53)"/>
<path d="M0 0 C4.38889325 0.66498383 7.9811485 2.18757677 12 4 C11.67 5.32 11.34 6.64 11 8 C8.125 8.1875 8.125 8.1875 5 8 C4.34 7.01 3.68 6.02 3 5 C2.01 5.495 2.01 5.495 1 6 C1 5.34 1 4.68 1 4 C0.34 3.67 -0.32 3.34 -1 3 C-0.34 3 0.32 3 1 3 C0.67 2.01 0.34 1.02 0 0 Z " fill="#9BC4CE" transform="translate(88,50)"/>
<path d="M0 0 C1.8871875 -0.00386719 1.8871875 -0.00386719 3.8125 -0.0078125 C7 0.125 7 0.125 9 1.125 C9 2.115 9 3.105 9 4.125 C2.88115419 4.125 -2.94207858 4.05698791 -9 3.125 C-9 2.465 -9 1.805 -9 1.125 C-6.02760209 -0.36119895 -3.30380422 -0.00677009 0 0 Z " fill="#C2C2C2" transform="translate(86,109.875)"/>
<path d="M0 0 C1.16015625 -0.05607422 1.16015625 -0.05607422 2.34375 -0.11328125 C4.5 0.3125 4.5 0.3125 7.5 4.3125 C2.22 4.3125 -3.06 4.3125 -8.5 4.3125 C-8.17 3.3225 -7.84 2.3325 -7.5 1.3125 C-4.7642373 0.4005791 -2.84374032 0.09005178 0 0 Z " fill="#9FB5BA" transform="translate(89.5,100.6875)"/>
<path d="M0 0 C1.32 0 2.64 0 4 0 C3.67 6.27 3.34 12.54 3 19 C2.67 17.68 2.34 16.36 2 15 C1.34 15 0.68 15 0 15 C0 10.05 0 5.1 0 0 Z " fill="#FBF5C5" transform="translate(88,69)"/>
<path d="M0 0 C1.37478516 0.01740234 1.37478516 0.01740234 2.77734375 0.03515625 C3.69644531 0.04417969 4.61554688 0.05320313 5.5625 0.0625 C6.27277344 0.07410156 6.98304687 0.08570313 7.71484375 0.09765625 C7.359375 2.01953125 7.359375 2.01953125 6.71484375 4.09765625 C3.41657468 5.88050439 1.53736865 6.09765625 -2.28515625 6.09765625 C-2.66734392 4.44150968 -2.99910727 2.77308601 -3.28515625 1.09765625 C-2.28515625 0.09765625 -2.28515625 0.09765625 0 0 Z " fill="#506968" transform="translate(75.28515625,53.90234375)"/>
<path d="M0 0 C0.33 0.66 0.66 1.32 1 2 C1.99 1.67 2.98 1.34 4 1 C4 4 4 4 3 9 C-1.29 8.67 -5.58 8.34 -10 8 C-10 7.67 -10 7.34 -10 7 C-8.906875 6.773125 -7.81375 6.54625 -6.6875 6.3125 C-2.87511789 5.34252805 -2.87511789 5.34252805 -1.0625 2.375 C-0.711875 1.59125 -0.36125 0.8075 0 0 Z " fill="#C9F1FD" transform="translate(81,72)"/>
<path d="M0 0 C2.31 0 4.62 0 7 0 C7 1.98 7 3.96 7 6 C9.97 6.495 9.97 6.495 13 7 C13 7.33 13 7.66 13 8 C9.04 8 5.08 8 1 8 C1.99 6.35 2.98 4.7 4 3 C2.68 2.34 1.36 1.68 0 1 C0 0.67 0 0.34 0 0 Z " fill="#F2F2F2" transform="translate(24,113)"/>
<path d="M0 0 C0.928125 0.165 1.85625 0.33 2.8125 0.5 C5.74559187 0.96009284 7.25741623 0.94935592 10 0 C10.33 1.32 10.66 2.64 11 4 C7.26562152 4.87867729 3.83225427 5.08912219 0 5 C-0.5625 3.0625 -0.5625 3.0625 -1 1 C-0.67 0.67 -0.34 0.34 0 0 Z " fill="#313733" transform="translate(92,61)"/>
<path d="M0 0 C3.3 0.66 6.6 1.32 10 2 C9.67 3.32 9.34 4.64 9 6 C8.360625 5.814375 7.72125 5.62875 7.0625 5.4375 C6.0415625 5.2209375 6.0415625 5.2209375 5 5 C4.67 5.33 4.34 5.66 4 6 C2.33382885 6.04063832 0.66611905 6.042721 -1 6 C-0.67 4.02 -0.34 2.04 0 0 Z " fill="#57728C" transform="translate(95,119)"/>
<path d="M0 0 C4.95 0 9.9 0 15 0 C15 0.66 15 1.32 15 2 C10.49646738 3.75747614 6.82360189 4.19294408 2 4 C2 3.01 2 2.02 2 1 C1.34 0.67 0.68 0.34 0 0 Z " fill="#040404" transform="translate(129,118)"/>
<path d="M0 0 C0.99 0 1.98 0 3 0 C5.23551759 3.35327639 5.17283528 3.90743657 4.625 7.6875 C4.51414062 8.49574219 4.40328125 9.30398437 4.2890625 10.13671875 C4.19367187 10.75160156 4.09828125 11.36648437 4 12 C2.68 12 1.36 12 0 12 C0 8.04 0 4.08 0 0 Z " fill="#9799C4" transform="translate(50,64)"/>
<path d="M0 0 C6.44362304 -0.2408831 12.2103966 0.64700392 18.5 2 C19.4178125 2.19078125 20.335625 2.3815625 21.28125 2.578125 C23.52241577 3.04503453 25.76180083 3.51910692 28 4 C28 4.33 28 4.66 28 5 C24.04 5 20.08 5 16 5 C16 4.34 16 3.68 16 3 C15.18015625 2.95101562 14.3603125 2.90203125 13.515625 2.8515625 C12.43796875 2.77679688 11.3603125 2.70203125 10.25 2.625 C9.18265625 2.55539063 8.1153125 2.48578125 7.015625 2.4140625 C4.19793568 2.0271777 2.4169634 1.44313834 0 0 Z " fill="#4F4F5D" transform="translate(94,45)"/>
<path d="M0 0 C4.29 0 8.58 0 13 0 C12.67 1.32 12.34 2.64 12 4 C7.45194365 4.17835515 4.1205746 3.99785435 0 2 C0 1.34 0 0.68 0 0 Z " fill="#040404" transform="translate(37,118)"/>
<path d="M0 0 C1.51553092 3.97450493 0.49888623 7.20481149 -0.4375 11.25 C-0.72496094 12.51328125 -1.01242188 13.7765625 -1.30859375 15.078125 C-1.53675781 16.04234375 -1.76492187 17.0065625 -2 18 C-2.33 18 -2.66 18 -3 18 C-3.309375 16.906875 -3.61875 15.81375 -3.9375 14.6875 C-4.58337897 12.44592006 -5.2623117 10.2130649 -6 8 C-5.195625 7.236875 -4.39125 6.47375 -3.5625 5.6875 C-0.83200976 3.20569102 -0.83200976 3.20569102 0 0 Z " fill="#91A8DC" transform="translate(58,54)"/>
<path d="M0 0 C1.45839897 3.95705456 0.67906093 7.69831388 0.0625 11.75 C-0.03740234 12.44738281 -0.13730469 13.14476563 -0.24023438 13.86328125 C-0.48665873 15.57651726 -0.74240955 17.28840725 -1 19 C-1.33 19 -1.66 19 -2 19 C-2.33 16.03 -2.66 13.06 -3 10 C-3.33 10 -3.66 10 -4 10 C-4 7.69 -4 5.38 -4 3 C-2.68 3 -1.36 3 0 3 C0 2.01 0 1.02 0 0 Z " fill="#8FA7D9" transform="translate(54,73)"/>
<path d="M0 0 C-0.1875 1.875 -0.1875 1.875 -1 4 C-3.5 5.125 -3.5 5.125 -6 6 C-6.33 6.66 -6.66 7.32 -7 8 C-7.66 8 -8.32 8 -9 8 C-9 6.68 -9 5.36 -9 4 C-8.34 3.67 -7.68 3.34 -7 3 C-6.67 2.01 -6.34 1.02 -6 0 C-3.50907189 -1.24546405 -2.58919267 -0.7767578 0 0 Z " fill="#FACF93" transform="translate(88,97)"/>
<path d="M0 0 C3.3 0 6.6 0 10 0 C8.68 0.99 7.36 1.98 6 3 C8.97 3.495 8.97 3.495 12 4 C12 4.33 12 4.66 12 5 C8.04 5 4.08 5 0 5 C0 3.35 0 1.7 0 0 Z " fill="#91B3DA" transform="translate(101,100)"/>
<path d="M0 0 C1.41655793 -0.0272415 2.83327045 -0.04650467 4.25 -0.0625 C5.43335937 -0.07990234 5.43335937 -0.07990234 6.640625 -0.09765625 C9.75926966 0.03142672 12.21213393 0.60606696 15 2 C14.67 2.66 14.34 3.32 14 4 C11.36 4 8.72 4 6 4 C5.67 3.34 5.34 2.68 5 2 C3.68 2.33 2.36 2.66 1 3 C0.67 2.01 0.34 1.02 0 0 Z " fill="#C8C8C8" transform="translate(120,110)"/>
<path d="M0 0 C3.63 0 7.26 0 11 0 C11 0.33 11 0.66 11 1 C9.02 1.33 7.04 1.66 5 2 C5.99 2.66 6.98 3.32 8 4 C6.9024777 6.99324263 6.32317108 7.84610901 3.375 9.25 C2.59125 9.4975 1.8075 9.745 1 10 C1.495 9.38125 1.99 8.7625 2.5 8.125 C4.19222773 6.16119096 4.19222773 6.16119096 4 4 C2.70766393 2.62689293 1.37562854 1.28965176 0 0 Z " fill="#212121" transform="translate(20,112)"/>
<path d="M0 0 C3.3 0 6.6 0 10 0 C10 1.65 10 3.3 10 5 C6.04 5 2.08 5 -2 5 C-2 4.67 -2 4.34 -2 4 C0.64 3.67 3.28 3.34 6 3 C6 2.34 6 1.68 6 1 C4.02 1 2.04 1 0 1 C0 0.67 0 0.34 0 0 Z " fill="#98BDDA" transform="translate(69,100)"/>
<path d="M0 0 C0.33 0 0.66 0 1 0 C1 2.64 1 5.28 1 8 C2.65 8 4.3 8 6 8 C5.01 8.495 5.01 8.495 4 9 C4.99 10.32 5.98 11.64 7 13 C5.02 13 3.04 13 1 13 C1.33 11.68 1.66 10.36 2 9 C0.68 8.34 -0.64 7.68 -2 7 C-1.34 4.69 -0.68 2.38 0 0 Z " fill="#FAE7C4" transform="translate(86,88)"/>
<path d="M0 0 C1.65 0 3.3 0 5 0 C3.625 2 3.625 2 2 4 C1.34 4 0.68 4 0 4 C2.475 6.97 2.475 6.97 5 10 C1.20411134 9.45773019 -0.47211993 7.79872437 -3 5 C-2.505 4.360625 -2.01 3.72125 -1.5 3.0625 C0.09802862 1.29025661 0.09802862 1.29025661 0 0 Z " fill="#282828" transform="translate(155,112)"/>
<path d="M0 0 C2.75 -0.25 2.75 -0.25 6 0 C8.375 2 8.375 2 10 4 C7.03 4 4.06 4 1 4 C0.67 2.68 0.34 1.36 0 0 Z " fill="#BABABA" transform="translate(67,110)"/>
<path d="M0 0 C0.66 0.33 1.32 0.66 2 1 C2.40729228 3.32156597 2.74438677 5.6568787 3 8 C1.35 8 -0.3 8 -2 8 C-2 5.69 -2 3.38 -2 1 C-1.34 0.67 -0.68 0.34 0 0 Z " fill="#999CCF" transform="translate(131,97)"/>
<path d="M0 0 C1.98 0.495 1.98 0.495 4 1 C3.67 1.33 3.34 1.66 3 2 C2.92820036 3.51928038 2.91607993 5.04167482 2.9375 6.5625 C2.94652344 7.38878906 2.95554687 8.21507813 2.96484375 9.06640625 C2.97644531 9.70449219 2.98804687 10.34257813 3 11 C-0.10877662 8.20042965 -0.64288953 6.19604804 -1 2 C-0.67 1.34 -0.34 0.68 0 0 Z " fill="#F4E0C0" transform="translate(98,94)"/>
<path d="M0 0 C0.33 1.65 0.66 3.3 1 5 C-1.31 5.33 -3.62 5.66 -6 6 C-6 4.35 -6 2.7 -6 1 C-3.92446352 0.4465236 -2.15634036 0 0 0 Z " fill="#1A2325" transform="translate(71,55)"/>
<path d="M0 0 C2.97 0.33 5.94 0.66 9 1 C8.67 1.99 8.34 2.98 8 4 C7.01 3.67 6.02 3.34 5 3 C5 4.32 5 5.64 5 7 C4.34 7 3.68 7 3 7 C2.814375 5.824375 2.814375 5.824375 2.625 4.625 C2.20882007 1.85942178 2.20882007 1.85942178 0 0 Z " fill="#96C6E1" transform="translate(60,53)"/>
<path d="M0 0 C2.97 0.495 2.97 0.495 6 1 C6 2.65 6 4.3 6 6 C4.35 6 2.7 6 1 6 C0.67 4.02 0.34 2.04 0 0 Z " fill="#8E95C1" transform="translate(44,99)"/>
<path d="M0 0 C1.07765625 0.00902344 2.1553125 0.01804688 3.265625 0.02734375 C4.08546875 0.03894531 4.9053125 0.05054688 5.75 0.0625 C5.75 0.3925 5.75 0.7225 5.75 1.0625 C4.14125 1.2790625 4.14125 1.2790625 2.5 1.5 C-0.97559884 1.93617366 -0.97559884 1.93617366 -3.1875 2.625 C-6.53000396 3.33401599 -9.84010051 3.11933166 -13.25 3.0625 C-8.72900181 0.04850121 -5.38967935 -0.05858347 0 0 Z " fill="#C1DCF3" transform="translate(90.25,48.9375)"/>
<path d="M0 0 C0.66 0 1.32 0 2 0 C2 0.99 2 1.98 2 3 C2.99 3.33 3.98 3.66 5 4 C5 4.66 5 5.32 5 6 C2.36 6 -0.28 6 -3 6 C-2.01 4.02 -1.02 2.04 0 0 Z " fill="#497CA1" transform="translate(59,99)"/>
<path d="M0 0 C1.08667969 0.29197266 1.08667969 0.29197266 2.1953125 0.58984375 C2.74960938 0.74582031 3.30390625 0.90179688 3.875 1.0625 C3.545 1.7225 3.215 2.3825 2.875 3.0625 C-1.415 2.7325 -5.705 2.4025 -10.125 2.0625 C-3.875 -1.0625 -3.875 -1.0625 0 0 Z " fill="#5889B0" transform="translate(113.125,101.9375)"/>
<path d="M0 0 C2.97 0.495 2.97 0.495 6 1 C5.67 2.32 5.34 3.64 5 5 C3.35 4.67 1.7 4.34 0 4 C0 2.68 0 1.36 0 0 Z " fill="#191D1C" transform="translate(94,53)"/>
<path d="M0 0 C0.66 0.33 1.32 0.66 2 1 C0.73461631 1.84158536 -0.53753779 2.67299748 -1.8125 3.5 C-2.87404297 4.19609375 -2.87404297 4.19609375 -3.95703125 4.90625 C-6 6 -6 6 -9 6 C-9 5.01 -9 4.02 -9 3 C-8.43410156 2.86722656 -7.86820312 2.73445313 -7.28515625 2.59765625 C-6.18494141 2.33275391 -6.18494141 2.33275391 -5.0625 2.0625 C-4.33160156 1.88847656 -3.60070312 1.71445313 -2.84765625 1.53515625 C-1.00030102 1.16112431 -1.00030102 1.16112431 0 0 Z " fill="#63637A" transform="translate(124,122)"/>
<path d="M0 0 C0.66 0 1.32 0 2 0 C2.33 1.98 2.66 3.96 3 6 C1.02 6 -0.96 6 -3 6 C-3 4.68 -3 3.36 -3 2 C-2.01 2 -1.02 2 0 2 C0 1.34 0 0.68 0 0 Z " fill="#5C7C93" transform="translate(84,119)"/>
<path d="M0 0 C0 1.32 0 2.64 0 4 C-2.64 3.67 -5.28 3.34 -8 3 C-5.53387212 -0.1151089 -3.89156016 -0.31553191 0 0 Z " fill="#C3C3C3" transform="translate(143,110)"/>
<path d="M0 0 C-0.99 1.485 -0.99 1.485 -2 3 C-2 2.34 -2 1.68 -2 1 C-2.66 1 -3.32 1 -4 1 C-4.33 1.66 -4.66 2.32 -5 3 C-6.65 3 -8.3 3 -10 3 C-9.67 2.01 -9.34 1.02 -9 0 C-5.52176885 -1.15941038 -3.54104422 -0.70820884 0 0 Z " fill="#B3B3B3" transform="translate(64,111)"/>
<path d="M0 0 C2.97 0.495 2.97 0.495 6 1 C6 2.32 6 3.64 6 5 C4.02 5 2.04 5 0 5 C0 3.35 0 1.7 0 0 Z " fill="#0E1312" transform="translate(107,55)"/>
<path d="M0 0 C1.98 0 3.96 0 6 0 C6 1.32 6 2.64 6 4 C4.02 4 2.04 4 0 4 C0 2.68 0 1.36 0 0 Z " fill="#516B80" transform="translate(74,121)"/>
<path d="M0 0 C2.78211944 0.37596209 4.5879284 0.67318459 6.8125 2.4375 C8 4 8 4 8 6 C4.74456771 5.65120368 3.98126893 4.97866739 1.75 2.4375 C1.1725 1.633125 0.595 0.82875 0 0 Z " fill="#E9B479" transform="translate(92,99)"/>
<path d="M0 0 C0.99 0.495 0.99 0.495 2 1 C2.4140625 3.06640625 2.4140625 3.06640625 2.625 5.5625 C2.69976562 6.38878906 2.77453125 7.21507813 2.8515625 8.06640625 C2.92503906 9.02353516 2.92503906 9.02353516 3 10 C2.01 10 1.02 10 0 10 C0 6.7 0 3.4 0 0 Z " fill="#EEE5B5" transform="translate(91,72)"/>
<path d="M0 0 C1.98 0 3.96 0 6 0 C5.67 1.32 5.34 2.64 5 4 C3.35 4 1.7 4 0 4 C0 2.68 0 1.36 0 0 Z " fill="#151516" transform="translate(77,54)"/>
<path d="M0 0 C1.65 0.33 3.3 0.66 5 1 C5 2.32 5 3.64 5 5 C3.35 5.33 1.7 5.66 0 6 C-0.66 5.01 -1.32 4.02 -2 3 C-1.34 3 -0.68 3 0 3 C0 2.01 0 1.02 0 0 Z " fill="#8B92B7" transform="translate(86,132)"/>
<path d="M0 0 C1.65 0 3.3 0 5 0 C5 1.66666667 5 3.33333333 5 5 C3.35 5 1.7 5 0 5 C0 3.35 0 1.7 0 0 Z " fill="#212727" transform="translate(101,54)"/>
<path d="M0 0 C1.67542976 0.28604898 3.34385343 0.61781233 5 1 C4.67 1.99 4.34 2.98 4 4 C1.03 3.505 1.03 3.505 -2 3 C-1 1 -1 1 0 0 Z " fill="#B6B6B6" transform="translate(103,110)"/>
<path d="M0 0 C0 1.32 0 2.64 0 4 C-2.64 4 -5.28 4 -8 4 C-4.5 0 -4.5 0 0 0 Z " fill="#CED5E0" transform="translate(119,97)"/>
<path d="M0 0 C1.98 0.495 1.98 0.495 4 1 C3.67 2.32 3.34 3.64 3 5 C1.68 4.67 0.36 4.34 -1 4 C-0.67 2.68 -0.34 1.36 0 0 Z " fill="#232623" transform="translate(92,61)"/>
<path d="M0 0 C0.66 0 1.32 0 2 0 C3.31223496 3.93670488 2.24296256 6.12488144 1 10 C0.67 10 0.34 10 0 10 C0 7.69 0 5.38 0 3 C-1.98 3 -3.96 3 -6 3 C-6 2.67 -6 2.34 -6 2 C-4.02 2 -2.04 2 0 2 C0 1.34 0 0.68 0 0 Z " fill="#98A9DB" transform="translate(121,51)"/>
<path d="M0 0 C1.65 0 3.3 0 5 0 C5.33 1.32 5.66 2.64 6 4 C4.35 4 2.7 4 1 4 C0.67 2.68 0.34 1.36 0 0 Z " fill="#C3C3C3" transform="translate(37,110)"/>
<path d="M0 0 C0.33 0 0.66 0 1 0 C1 3.63 1 7.26 1 11 C0.01 10.01 -0.98 9.02 -2 8 C-1.79846293 5.15124622 -0.85624823 2.74900747 0 0 Z " fill="#F1E8B6" transform="translate(87,76)"/>
<path d="M0 0 C2.475 0.495 2.475 0.495 5 1 C5 1.66 5 2.32 5 3 C3.68 3 2.36 3 1 3 C1 5.31 1 7.62 1 10 C0.67 10 0.34 10 0 10 C0 6.7 0 3.4 0 0 Z " fill="#D4F8E4" transform="translate(87,66)"/>
<path d="M0 0 C1.98 0 3.96 0 6 0 C6 1.32 6 2.64 6 4 C4.02 4 2.04 4 0 4 C0 2.68 0 1.36 0 0 Z " fill="#191C17" transform="translate(84,62)"/>
<path d="M0 0 C1.98 0.495 1.98 0.495 4 1 C4 2.32 4 3.64 4 5 C2.35 5 0.7 5 -1 5 C-0.67 3.35 -0.34 1.7 0 0 Z " fill="#1D221F" transform="translate(85,52)"/>
<path d="M0 0 C-0.66 0 -1.32 0 -2 0 C-2.33 0.99 -2.66 1.98 -3 3 C-4.65 3.33 -6.3 3.66 -8 4 C-5.97675095 -0.48005146 -4.79569304 -1.43870791 0 0 Z " fill="#A1AAD3" transform="translate(85,47)"/>
<path d="M0 0 C0.33 0.66 0.66 1.32 1 2 C0.0625 4.125 0.0625 4.125 -1 6 C0.32 5.67 1.64 5.34 3 5 C2.01 6.485 2.01 6.485 1 8 C-0.32 8 -1.64 8 -3 8 C-1.125 1.125 -1.125 1.125 0 0 Z " fill="#E2EFF4" transform="translate(64,89)"/>
<path d="M0 0 C0.99 0 1.98 0 3 0 C3 0.99 3 1.98 3 3 C3.66 3 4.32 3 5 3 C5 3.66 5 4.32 5 5 C3.35 5 1.7 5 0 5 C0 3.35 0 1.7 0 0 Z " fill="#364242" transform="translate(104,61)"/>
<path d="M0 0 C0.99 0 1.98 0 3 0 C3 0.99 3 1.98 3 3 C-0.96 3 -4.92 3 -9 3 C-9 2.67 -9 2.34 -9 2 C-6.03 2 -3.06 2 0 2 C0 1.34 0 0.68 0 0 Z " fill="#D6F5F8" transform="translate(80,77)"/>
<path d="M0 0 C0.33 0.66 0.66 1.32 1 2 C2.32 2.33 3.64 2.66 5 3 C1.7 3.33 -1.6 3.66 -5 4 C-5 3.01 -5 2.02 -5 1 C-3.35 0.67 -1.7 0.34 0 0 Z " fill="#9BA5D5" transform="translate(64,50)"/>
<path d="M0 0 C1.32 0.33 2.64 0.66 4 1 C4 1.66 4 2.32 4 3 C4.99 3.33 5.98 3.66 7 4 C4.03 3.67 1.06 3.34 -2 3 C-1.34 2.01 -0.68 1.02 0 0 Z " fill="#A1A7D8" transform="translate(107,49)"/>
<path d="M0 0 C1.98 0.495 1.98 0.495 4 1 C3.01 1.495 3.01 1.495 2 2 C2 3.32 2 4.64 2 6 C1.01 6 0.02 6 -1 6 C-0.67 4.02 -0.34 2.04 0 0 Z " fill="#6D8CA8" transform="translate(95,119)"/>
<path d="M0 0 C0.99 0.33 1.98 0.66 3 1 C3.33 1.99 3.66 2.98 4 4 C2.68 4.99 1.36 5.98 0 7 C-1.125 2.25 -1.125 2.25 0 0 Z " fill="#E8EBEB" transform="translate(101,93)"/>
<path d="M0 0 C2.31 0 4.62 0 7 0 C6.01 0.495 6.01 0.495 5 1 C5 2.32 5 3.64 5 5 C4.34 5 3.68 5 3 5 C3 4.34 3 3.68 3 3 C2.34 2.67 1.68 2.34 1 2 C0.67 1.34 0.34 0.68 0 0 Z " fill="#7F8979" transform="translate(79,61)"/>
</svg>
